name analog
datacolumns 19
datarows 32
range 0.0 0.0155
endheader
time	ground_force_vx	ground_force_vy	ground_force_vz	ground_force_px	ground_force_py	ground_force_pz	l_ground_force_vx	l_ground_force_vy	l_ground_force_vz	l_ground_force_px	l_ground_force_py	l_ground_force_pz	ground_torque_x	ground_torque_y	ground_torque_z	l_ground_torque_x	l_ground_torque_y	l_ground_torque_z
0.0	-0.0	-0.0	-0.0	5.458460807800293	44.68754577636719	-378.2073364257813	-5.716468811035156	-40.20867156982422	-345.2457275390625	-0.0	-0.0	-0.0	-0.0	-0.0	-0.0	87259.6015625	-16542.19140625	-1608.64599609375
0.0005	-0.0	-0.0	-0.0	5.570516586303711	44.826297760009766	-380.2435302734375	-5.710569858551025	-40.1145133972168	-346.3583984375	-0.0	-0.0	-0.0	-0.0	-0.0	-0.0	87218.2109375	-16436.15625	-1573.372802734375
0.001	-0.0	-0.0	-0.0	4.414457321166992	45.65129470825195	-380.6624755859375	-5.766201019287109	-40.13090515136719	-345.7250366210937	-0.0	-0.0	-0.0	-0.0	-0.0	-0.0	87301.6015625	-16381.267578125	-1656.852783203125
0.0015	-0.0	-0.0	-0.0	4.6224284172058105	45.717281341552734	-381.2381591796875	-5.388552665710449	-40.43492889404297	-346.0989990234375	-0.0	-0.0	-0.0	-0.0	-0.0	-0.0	86954.75	-16276.3935546875	-1653.2508544921875
0.002	-0.0	-0.0	-0.0	4.490623474121094	46.29841232299805	-381.8796997070313	-5.3226470947265625	-40.52328872680664	-345.5307006835937	-0.0	-0.0	-0.0	-0.0	-0.0	-0.0	87166.890625	-16029.3994140625	-1513.771484375
0.0025	-0.0	-0.0	-0.0	4.160008907318115	46.14613342285156	-382.2986145019531	-5.532871723175049	-40.65396499633789	-344.4835510253906	-0.0	-0.0	-0.0	-0.0	-0.0	-0.0	87019.359375	-15929.3427734375	-1796.344970703125
0.003	-0.0	-0.0	-0.0	4.070868015289307	46.84980392456055	-381.9823913574219	-6.065066814422607	-40.82091522216797	-343.6296081542969	-0.0	-0.0	-0.0	-0.0	-0.0	-0.0	86487.6171875	-15547.3857421875	-1694.58642578125
0.0035	-0.0	-0.0	-0.0	3.7231619358062735	46.0167350769043	-383.1642456054688	-5.838569641113281	-41.04634475708008	-342.5820617675781	-0.0	-0.0	-0.0	-0.0	-0.0	-0.0	86259.5703125	-15291.72265625	-1853.74853515625
0.004	-0.0	-0.0	-0.0	4.216724395751953	46.53355026245117	-381.4694213867188	-6.459582805633545	-41.415714263916016	-342.8310241699219	-0.0	-0.0	-0.0	-0.0	-0.0	-0.0	86104.875	-14987.681640625	-1830.0721435546875
0.0045000000000000005	-0.0	-0.0	-0.0	4.062435150146484	46.80112838745117	-383.6141662597656	-6.515797138214111	-41.599517822265625	-341.49932861328125	-0.0	-0.0	-0.0	-0.0	-0.0	-0.0	85616.9453125	-14948.4609375	-1841.025390625
0.005	-0.0	-0.0	-0.0	4.135573387145996	46.574195861816406	-380.4392700195313	-7.113103866577148	-41.84830856323242	-340.7424621582031	-0.0	-0.0	-0.0	-0.0	-0.0	-0.0	85347.4765625	-14643.3662109375	-2011.11962890625
0.0055	-0.0	-0.0	-0.0	4.160407066345215	46.54229736328125	-380.69635009765625	-6.839240550994873	-41.83221435546875	-340.1039733886719	-0.0	-0.0	-0.0	-0.0	-0.0	-0.0	84842.25	-14565.2412109375	-2153.873046875
0.006	-0.0	-0.0	-0.0	4.2821044921875	46.16153335571289	-382.0765380859375	-6.62926197052002	-41.808349609375	-338.8043212890625	-0.0	-0.0	-0.0	-0.0	-0.0	-0.0	84468.0390625	-14300.0205078125	-2072.964111328125
0.006500000000000001	-0.0	-0.0	-0.0	4.355135440826416	46.16124725341797	-381.0153503417969	-7.290424346923828	-41.70390701293945	-338.01031494140625	-0.0	-0.0	-0.0	-0.0	-0.0	-0.0	84185.6484375	-14257.44140625	-2119.245849609375
0.007	-0.0	-0.0	-0.0	3.8275513648986816	45.86140823364258	-381.1753234863281	-6.992049694061279	-41.34271240234375	-335.9795227050781	-0.0	-0.0	-0.0	-0.0	-0.0	-0.0	83654.0078125	-13897.658203125	-2253.787109375
0.0075	-0.0	-0.0	-0.0	3.925262451171875	45.7486686706543	-381.8168640136719	-6.701503753662109	-41.12591552734375	-333.1208801269531	-0.0	-0.0	-0.0	-0.0	-0.0	-0.0	83586.3125	-13734.271484375	-2107.810791015625
0.008	-0.0	-0.0	-0.0	4.216231346130371	45.66533660888672	-383.333740234375	-6.919441223144531	-40.820587158203125	-333.4398193359375	-0.0	-0.0	-0.0	-0.0	-0.0	-0.0	83137.109375	-13619.3623046875	-2164.67431640625
0.0085	-0.0	-0.0	-0.0	4.615872859954834	46.12849807739258	-383.6169128417969	-6.44248104095459	-40.96533203125	-333.09063720703125	-0.0	-0.0	-0.0	-0.0	-0.0	-0.0	83031.1171875	-13370.880859375	-2023.8809814453125
0.009000000000000001	-0.0	-0.0	-0.0	4.055675029754639	45.80384063720703	-382.8470458984375	-6.596526622772217	-40.78872680664063	-332.26666259765625	-0.0	-0.0	-0.0	-0.0	-0.0	-0.0	82726.359375	-13157.3642578125	-2067.208740234375
0.0095	-0.0	-0.0	-0.0	4.259451389312744	45.84759140014648	-383.4901428222656	-6.928442478179932	-40.41958618164063	-331.0311889648437	-0.0	-0.0	-0.0	-0.0	-0.0	-0.0	82627.1484375	-13298.2490234375	-2067.34375
0.01	-0.0	-0.0	-0.0	4.403200626373291	46.12176513671875	-383.8810729980469	-6.621500015258789	-40.65296173095703	-330.6827392578125	-0.0	-0.0	-0.0	-0.0	-0.0	-0.0	82363.875	-13181.5478515625	-2110.545166015625
0.0105	-0.0	-0.0	-0.0	4.355410099029541	45.790924072265625	-382.8717041015625	-6.7578864097595215	-40.009727478027344	-329.3124389648437	-0.0	-0.0	-0.0	-0.0	-0.0	-0.0	82117.4765625	-12923.8154296875	-2288.488037109375
0.011	-0.0	-0.0	-0.0	4.5179972648620605	46.17340087890625	-383.4515686035156	-6.821177005767822	-40.09804534912109	-330.2727355957031	-0.0	-0.0	-0.0	-0.0	-0.0	-0.0	81828.3203125	-12789.939453125	-2277.991455078125
0.0115	-0.0	-0.0	-0.0	3.9786224365234375	45.4881591796875	-384.9034118652344	-6.805233001708984	-40.33154678344727	-327.3416748046875	-0.0	-0.0	-0.0	-0.0	-0.0	-0.0	81768.5390625	-12625.66796875	-2410.543701171875
0.012	-0.0	-0.0	-0.0	4.271911144256592	45.7025032043457	-384.0094909667969	-7.071215629577637	-40.65351486206055	-328.2025146484375	-0.0	-0.0	-0.0	-0.0	-0.0	-0.0	81546.4609375	-12349.2958984375	-2339.694091796875
0.0125	-0.0	-0.0	-0.0	4.492056846618652	45.69777297973633	-385.0285339355469	-7.268624782562256	-39.89008331298828	-327.4027099609375	-0.0	-0.0	-0.0	-0.0	-0.0	-0.0	81569.765625	-12237.4677734375	-2510.44775390625
0.013000000000000001	-0.0	-0.0	-0.0	5.478604316711426	45.7868537902832	-384.7998962402344	-7.3888959884643555	-39.9370346069336	-328.2025146484375	-0.0	-0.0	-0.0	-0.0	-0.0	-0.0	81433.3359375	-12106.892578125	-2439.189453125
0.0135	-0.0	-0.0	-0.0	5.289822578430176	45.11567306518555	-385.3815002441406	-7.201238632202148	-39.66169357299805	-327.50421142578125	-0.0	-0.0	-0.0	-0.0	-0.0	-0.0	81316.546875	-12260.86328125	-2506.974853515625
0.014	-0.0	-0.0	-0.0	5.326077461242676	45.60346603393555	-385.38134765625	-6.653308868408203	-39.864200592041016	-327.11346435546875	-0.0	-0.0	-0.0	-0.0	-0.0	-0.0	81319.59375	-11922.5732421875	-2417.64453125
0.0145	-0.0	-0.0	-0.0	5.352630615234375	45.26261901855469	-385.6724853515625	-6.585099697113037	-39.68750762939453	-327.4007263183594	-0.0	-0.0	-0.0	-0.0	-0.0	-0.0	81496.375	-11935.8759765625	-2253.579833984375
0.015	-0.0	-0.0	-0.0	5.631469249725342	45.73509216308594	-386.3170776367188	-6.460322856903076	-40.03606033325195	-329.3725280761719	-0.0	-0.0	-0.0	-0.0	-0.0	-0.0	81668.65625	-12130.49609375	-2415.98779296875
0.0155	-0.0	-0.0	-0.0	5.542447090148926	45.30934143066406	-387.0687255859375	-6.424856662750244	-39.74475860595703	-329.1888732910156	-0.0	-0.0	-0.0	-0.0	-0.0	-0.0	81729.9921875	-12025.3623046875	-2272.83544921875
